<svg xmlns="http://www.w3.org/2000/svg" xmlns:xlink="http://www.w3.org/1999/xlink" version="1.1" x="0px" y="0px" viewBox="0 0 100 125" enable-background="new 0 0 100 100" xml:space="preserve"><path d="M53.072,26.191l-1.554-1.553l11.939-11.939c0.391-0.391,0.391-1.023,0-1.414s-1.023-0.391-1.414,0l-11.94,11.939  l-11.94-11.939c-0.391-0.391-1.023-0.391-1.414,0s-0.391,1.023,0,1.414l11.94,11.939l-1.55,1.549  C24.507,26.549,1.5,31.174,1.5,39.466v36.341c0,0.03,0.015,0.055,0.017,0.084C1.88,84.411,26.661,89.008,50,89.008  s48.119-4.597,48.483-13.116c0.002-0.029,0.017-0.055,0.017-0.085V39.466C98.5,31.2,75.637,26.578,53.072,26.191z M50.104,26.052  l0.111,0.112c-0.072,0-0.144-0.001-0.215-0.001c-0.002,0-0.004,0-0.006,0L50.104,26.052z M45.1,28.228l-3.96,3.959  c-1.038-0.746-2.276-1.154-3.579-1.154c-1.643,0-3.188,0.639-4.351,1.801c-2.396,2.399-2.396,6.3,0.002,8.698  c1.161,1.162,2.706,1.801,4.348,1.801s3.187-0.64,4.347-1.801c1.162-1.162,1.802-2.706,1.803-4.349c0-1.305-0.409-2.543-1.156-3.582  l5.425-5.425c0.669-0.007,1.34-0.014,2.02-0.014c0.75,0,1.492,0.006,2.229,0.015l5.435,5.434c-1.722,2.402-1.521,5.765,0.636,7.92  c1.161,1.161,2.705,1.801,4.348,1.801s3.187-0.64,4.348-1.801c2.398-2.397,2.399-6.299,0.002-8.698c-1.162-1.161-2.707-1.8-4.35-1.8  c-1.304,0-2.542,0.408-3.579,1.155l-3.955-3.955C79.749,28.916,96.5,34.458,96.5,39.466c0,5.347-19.097,11.305-46.5,11.305  S3.5,44.813,3.5,39.466C3.5,34.444,20.348,28.885,45.1,28.228z M40.493,34.245c0,0,0,0.001,0.001,0.002s0.002,0.001,0.003,0.002  c0.783,0.783,1.213,1.825,1.213,2.933c0,1.109-0.432,2.151-1.217,2.935c-0.783,0.784-1.825,1.215-2.933,1.215  c-1.108,0-2.15-0.432-2.934-1.215c-1.618-1.618-1.619-4.251-0.002-5.869c0.785-0.784,1.828-1.215,2.937-1.215  C38.668,33.033,39.708,33.463,40.493,34.245z M59.714,34.247c0,0,0.001-0.001,0.001-0.001c0.783-0.782,1.824-1.213,2.933-1.213  c1.109,0,2.151,0.431,2.936,1.215c1.617,1.619,1.616,4.251-0.002,5.87c-0.783,0.784-1.825,1.215-2.934,1.215  s-2.15-0.432-2.934-1.215c-1.618-1.618-1.619-4.25-0.003-5.869C59.712,34.248,59.713,34.248,59.714,34.247z M87.774,67.465  c-1.993,0-3.614-1.621-3.614-3.614s1.621-3.615,3.614-3.615s3.614,1.622,3.614,3.615S89.768,67.465,87.774,67.465z M86.774,58.33  c-2.619,0.474-4.614,2.766-4.614,5.521c0,2.754,1.995,5.046,4.614,5.52v13.04c-4.014,1.298-9.148,2.422-15.172,3.234V72.373  c2.484-0.471,4.372-2.652,4.372-5.273c0-2.619-1.888-4.8-4.372-5.271V51.434c5.668-0.736,10.875-1.773,15.172-3.096V58.33z   M12.232,60.231c1.995,0,3.617,1.623,3.617,3.617c0,1.995-1.623,3.618-3.617,3.618c-1.995,0-3.618-1.623-3.618-3.618  C8.614,61.854,10.237,60.231,12.232,60.231z M13.232,69.372c2.621-0.474,4.617-2.768,4.617-5.523s-1.996-5.049-4.617-5.522V48.34  c4.296,1.321,9.5,2.358,15.165,3.094v10.355c-2.486,0.471-4.374,2.652-4.374,5.272s1.888,4.801,4.374,5.271v13.312  c-6.02-0.812-11.152-1.936-15.165-3.232V69.372z M29.397,70.435c-1.86,0-3.374-1.513-3.374-3.373s1.514-3.374,3.374-3.374  c1.86,0,3.373,1.514,3.373,3.374S31.257,70.435,29.397,70.435z M30.397,72.333c2.485-0.471,4.373-2.651,4.373-5.271  s-1.888-4.802-4.373-5.272v-10.11c5.943,0.687,12.312,1.051,18.603,1.086v9.106c-2.44,0.469-4.292,2.615-4.292,5.19  s1.852,4.722,4.292,5.19v14.749c-6.782-0.036-13.038-0.437-18.603-1.102V72.333z M50,70.354c-1.815,0-3.292-1.477-3.292-3.292  S48.185,63.77,50,63.77s3.293,1.477,3.293,3.292S51.815,70.354,50,70.354z M51,72.252c2.441-0.469,4.293-2.615,4.293-5.19  S53.441,62.34,51,61.871v-9.106c6.291-0.035,12.659-0.399,18.603-1.086v10.15c-2.485,0.471-4.373,2.651-4.373,5.271  c0,2.621,1.888,4.803,4.373,5.273v13.526c-5.565,0.665-11.82,1.065-18.603,1.102V72.252z M70.603,70.475  c-1.86,0-3.373-1.514-3.373-3.375c0-1.859,1.513-3.372,3.373-3.372c1.859,0,3.372,1.513,3.372,3.372  C73.975,68.961,72.462,70.475,70.603,70.475z M3.5,75.703V43.474c1.68,1.602,4.348,3.005,7.732,4.205v10.647  c-2.622,0.474-4.618,2.767-4.618,5.522s1.997,5.05,4.618,5.523v12.347C6.281,79.867,3.5,77.741,3.5,75.703z M88.774,81.716V69.37  c2.619-0.474,4.614-2.766,4.614-5.52c0-2.755-1.995-5.047-4.614-5.521V47.676c3.381-1.199,6.047-2.602,7.726-4.202v32.229  C96.5,77.74,93.722,79.865,88.774,81.716z"/><text x="0" y="115" fill="#000000" font-size="5px" font-weight="bold" font-family="'Helvetica Neue', Helvetica, Arial-Unicode, Arial, Sans-serif">Created by Houda Mbarki</text><text x="0" y="120" fill="#000000" font-size="5px" font-weight="bold" font-family="'Helvetica Neue', Helvetica, Arial-Unicode, Arial, Sans-serif">from the Noun Project</text></svg>